<?xml version="1.0" encoding="UTF-8"?>
<svg version="1.1" xmlns="http://www.w3.org/2000/svg" width="256" height="130">
<path d="M0 0 C2.82008542 1.61296591 5.61299183 3.26559765 8.40087891 4.93359375 C10.54107309 6.19864579 12.68171373 7.46294278 14.82275391 8.7265625 C15.92554688 9.37931152 17.02833984 10.03206055 18.16455078 10.70458984 C22.55371811 13.2887408 26.9663231 15.8308227 31.3828125 18.36791992 C34.64012697 20.23991456 37.89190289 22.12125347 41.14306641 24.00390625 C45.36162636 26.4444699 49.5967847 28.85188229 53.84619141 31.23828125 C55.82296165 32.36552119 57.79953362 33.49310891 59.77587891 34.62109375 C61.12383545 35.3637146 61.12383545 35.3637146 62.49902344 36.12133789 C69.06594451 39.90422242 74.0747945 44.33034052 76.52587891 51.68359375 C77.24052256 58.93546954 76.8016849 64.67533578 72.52587891 70.68359375 C67.51544188 75.90599739 61.38349874 79.25042837 55.08837891 82.68359375 C53.02504487 83.82922832 50.96257128 84.97641371 48.90087891 86.125 C47.31726563 87.00502686 47.31726563 87.00502686 45.70166016 87.90283203 C40.62806895 90.74775625 35.60728421 93.68107142 30.58837891 96.62109375 C29.6111084 97.19239014 28.63383789 97.76368652 27.62695312 98.35229492 C23.47661054 100.7799499 19.32880157 103.21187962 15.18310547 105.64746094 C12.93982875 106.96532962 10.69594459 108.28216494 8.45141602 109.59790039 C6.33359109 110.83940599 4.21715723 112.08328837 2.10229492 113.32983398 C1.15281982 113.88614502 0.20334473 114.44245605 -0.77490234 115.015625 C-1.61190674 115.50780518 -2.44891113 115.99998535 -3.3112793 116.50708008 C-9.1727205 119.69550825 -16.4392242 119.73413904 -22.82958984 118.0703125 C-28.23652191 115.69628237 -31.49905772 111.69693584 -34.47412109 106.68359375 C-36.436239 100.79724002 -36.4911071 94.08123798 -33.91162109 88.37109375 C-29.77001148 81.51866346 -23.1392808 77.65272077 -16.22412109 73.99609375 C-14.6476955 73.14229341 -13.0722081 72.28675904 -11.49755859 71.4296875 C-10.68254883 70.98737793 -9.86753906 70.54506836 -9.02783203 70.08935547 C-4.59466854 67.64899644 -0.2228098 65.10356388 4.15087891 62.55859375 C4.98651367 62.07302002 5.82214844 61.58744629 6.68310547 61.0871582 C8.63150279 59.95401134 10.57913346 58.81957544 12.52587891 57.68359375 C10.90483265 56.65649359 9.27846653 55.63779637 7.65087891 54.62109375 C7.10222168 54.27820312 6.55356445 53.9353125 5.98828125 53.58203125 C1.75853362 50.97366846 -2.53946532 48.51274251 -6.88037109 46.09375 C-8.62041253 45.11609532 -10.3604512 44.13843557 -12.10015869 43.16018677 C-13.81753961 42.20122835 -15.54396644 41.25852795 -17.27050781 40.31616211 C-24.83332764 36.05990096 -30.78211602 31.80588118 -34.88037109 24.0078125 C-36.57426039 17.37712742 -36.32698855 11.40871615 -33.09912109 5.30859375 C-24.835999 -6.90138431 -11.83022743 -6.29451217 0 0 Z " fill="#0F9D57" transform="translate(177.47412109375,8.31640625)"/>
<path d="M0 0 C5.83684218 4.15313771 8.25624511 7.81247903 9.875 14.75 C10.45110778 21.01517213 8.53317701 26.63024869 5.16015625 31.84375 C0.97763109 36.625303 -4.95863866 39.33793118 -10.4375 42.375 C-11.61245476 43.03736174 -12.78676993 43.70085931 -13.96044922 44.36547852 C-16.2589146 45.66497335 -18.56103487 46.95707998 -20.86572266 48.24560547 C-24.8015237 50.44864849 -28.71434391 52.69026468 -32.625 54.9375 C-34.41631947 55.95894246 -36.20781204 56.98008213 -38 58 C-35.38593751 60.98203943 -32.33888839 62.65417935 -28.8984375 64.58203125 C-28.30253815 64.91869308 -27.70663879 65.25535492 -27.09268188 65.60221863 C-25.18937959 66.67699412 -23.28256693 67.7453145 -21.375 68.8125 C5.8079656 84.04740882 5.8079656 84.04740882 8.87890625 92.38671875 C10.63087983 99.58193099 9.82348598 104.73030099 6.1875 111.25 C2.47938821 115.91162626 -1.68050543 119.23672116 -7.53125 120.58203125 C-18.50619364 121.43403345 -26.12686741 116.18915311 -35.22412109 110.67675781 C-38.03429354 108.97928514 -40.86555935 107.32416709 -43.70703125 105.6796875 C-47.70183928 103.36725334 -51.68826753 101.0414625 -55.66796875 98.703125 C-60.09476306 96.10674022 -64.5355718 93.53599661 -68.98828125 90.984375 C-69.57031311 90.65044739 -70.15234497 90.31651978 -70.75201416 89.97247314 C-73.56070768 88.36125502 -76.37097404 86.75291523 -79.18408203 85.14941406 C-99.50188718 73.49433847 -99.50188718 73.49433847 -103 63 C-103.79232556 56.41460558 -102.80223634 51.44096145 -99 46 C-93.60580858 40.36835394 -87.304444 36.62082726 -80.5 32.9375 C-78.44836602 31.80232104 -76.39761218 30.66555021 -74.34765625 29.52734375 C-73.29852051 28.94710449 -72.24938477 28.36686523 -71.16845703 27.76904297 C-66.0524991 24.91265283 -60.99406232 21.95990873 -55.9375 19 C-54.95281738 18.42531982 -53.96813477 17.85063965 -52.95361328 17.25854492 C-47.8893218 14.29753125 -42.84074781 11.31219573 -37.80859375 8.296875 C-36.81158447 7.70132812 -35.8145752 7.10578125 -34.78735352 6.4921875 C-32.89800462 5.36196755 -31.01158136 4.22683692 -29.12866211 3.0859375 C-19.34640117 -2.76319206 -10.60914472 -5.80500372 0 0 Z " fill="#4285F3" transform="translate(104,7)"/>
<path d="M0 0 C1.12889648 0.65871094 2.25779297 1.31742187 3.42089844 1.99609375 C4.02915466 2.34744385 4.63741089 2.69879395 5.26409912 3.06079102 C7.19129173 4.1764852 9.11080849 5.30466685 11.03027344 6.43359375 C12.33446191 7.19226474 13.6391451 7.95008599 14.94433594 8.70703125 C17.32547515 10.08845553 19.70284231 11.475649 22.078125 12.8671875 C26.6910776 15.54126627 30.15205321 15.55152546 35.40527344 15.49609375 C36.20707031 15.49158203 37.00886719 15.48707031 37.83496094 15.48242188 C39.8167635 15.47062543 41.79852777 15.4526898 43.78027344 15.43359375 C39.77372744 18.87222158 35.58737961 21.32356423 30.96777344 23.80859375 C23.62952899 27.82176739 16.3734275 31.95831851 9.15527344 36.18359375 C8.15882813 36.76633057 7.16238281 37.34906738 6.13574219 37.94946289 C1.89347833 40.43279703 -2.34627702 42.92037401 -6.58447266 45.41064453 C-8.82407605 46.72633507 -11.06429669 48.04097558 -13.30517578 49.35449219 C-15.41895045 50.59352428 -17.5313115 51.83497189 -19.64208984 53.07910156 C-20.59196777 53.6356543 -21.5418457 54.19220703 -22.52050781 54.765625 C-23.35751221 55.25780518 -24.1945166 55.74998535 -25.05688477 56.25708008 C-30.91832597 59.44550825 -38.18482967 59.48413904 -44.57519531 57.8203125 C-49.98212738 55.44628237 -53.24466319 51.44693584 -56.21972656 46.43359375 C-58.18184447 40.54724002 -58.23671257 33.83123798 -55.65722656 28.12109375 C-51.51649848 21.27012199 -44.88528117 17.39972472 -37.96972656 13.74609375 C-32.92423399 11.03363948 -27.92574889 8.28885923 -23.03222656 5.30859375 C-22.18563477 4.79772217 -21.33904297 4.28685059 -20.46679688 3.76049805 C-18.83318776 2.76975916 -17.20711872 1.76645191 -15.58984375 0.74926758 C-14.84379883 0.30091553 -14.09775391 -0.14743652 -13.32910156 -0.609375 C-12.35408691 -1.2130188 -12.35408691 -1.2130188 -11.359375 -1.82885742 C-7.14784188 -3.28059653 -3.86773768 -1.88166552 0 0 Z " fill="#FABB04" transform="translate(199.2197265625,68.56640625)"/>
<path d="M0 0 C5.89303823 3.22449262 9.93031897 6.4182246 12.3125 12.8125 C13.83112144 19.32087758 13.19132997 24.73073337 10.3125 30.8125 C6.05438897 37.37521235 -0.28061084 40.40032866 -7 44.125 C-8.17396721 44.78359634 -9.34746752 45.44302561 -10.52050781 46.10327148 C-12.83944711 47.40747148 -15.16121465 48.70610378 -17.48486328 50.00195312 C-20.26966414 51.57628482 -23.01447968 53.19513983 -25.74609375 54.859375 C-26.46821045 55.29209717 -27.19032715 55.72481934 -27.93432617 56.1706543 C-29.22872861 56.94887334 -30.51483015 57.74114706 -31.7902832 58.55004883 C-34.73995485 60.28762957 -36.15526699 60.94817351 -39.53198242 60.08740234 C-42.66139784 58.82304588 -45.44370646 57.3767022 -48.34765625 55.66015625 C-49.38857422 55.04849609 -50.42949219 54.43683594 -51.50195312 53.80664062 C-52.57380859 53.16919922 -53.64566406 52.53175781 -54.75 51.875 C-55.82572266 51.24142578 -56.90144531 50.60785156 -58.00976562 49.95507812 C-66.14184124 45.16053137 -66.14184124 45.16053137 -69.31103516 43.13916016 C-72.55011365 41.33094642 -75.31770299 41.29706995 -79 41.125 C-80.25425781 41.05925781 -81.50851563 40.99351563 -82.80078125 40.92578125 C-83.75339844 40.88839844 -84.70601562 40.85101563 -85.6875 40.8125 C-82.27916354 37.9669796 -78.85283016 35.63038398 -74.98828125 33.44921875 C-73.87380615 32.81677246 -72.75933105 32.18432617 -71.61108398 31.53271484 C-70.40740685 30.85511209 -69.20371176 30.17754124 -68 29.5 C-66.11786032 28.43426639 -64.23661535 27.36696525 -62.35542297 26.29956055 C-61.06557057 25.56778739 -59.77543719 24.83650929 -58.48503113 24.10571289 C-54.12678745 21.63603578 -49.78126076 19.14531977 -45.4453125 16.63671875 C-44.86692123 16.30212143 -44.28852997 15.96752411 -43.69261169 15.62278748 C-40.95398419 14.03760287 -38.21651945 12.45042719 -35.47973633 10.86206055 C-10.73716951 -3.45773256 -10.73716951 -3.45773256 0 0 Z " fill="#E94335" transform="translate(100.6875,5.1875)"/>
</svg>
